<?xml version="1.0" encoding="UTF-8"?>
<svg id="Layer_1" xmlns="http://www.w3.org/2000/svg" version="1.1" viewBox="0 0 300 300">
  <!-- Generator: Adobe Illustrator 29.0.1, SVG Export Plug-In . SVG Version: 2.1.0 Build 192)  -->
  <defs>
    <style>
      .st0 {
        fill: #e5a743;
      }
    </style>
  </defs>
  <polygon class="st0" points="211.42 155.36 207.53 159.24 196.16 159.24 190.94 164.47 185.72 159.24 176.15 149.68 164.8 138.32 149.13 122.66 134.34 107.86 86.82 60.35 101.62 45.56 149.13 93.07 163.92 107.86 190.94 134.89 194.38 138.32 205.73 149.68 211.42 155.36"/>
  <polygon class="st0" points="211.43 60.35 163.92 107.86 149.13 122.66 133.46 138.32 112.54 159.24 107.32 164.46 102.1 159.24 90.72 159.24 86.84 155.36 103.87 138.32 107.32 134.88 134.34 107.86 149.13 93.07 196.64 45.56 211.43 60.35"/>
  <polygon class="st0" points="211.43 238.99 196.64 253.78 86.84 143.98 92.49 138.32 103.87 138.32 107.32 134.88 110.77 138.32 122.11 149.67 131.69 159.24 149.14 176.69 211.43 238.99"/>
  <polygon class="st0" points="211.43 143.98 196.16 159.24 190.94 164.47 163.93 191.48 149.14 206.28 101.63 253.78 86.84 238.99 134.34 191.48 149.14 176.69 166.58 159.24 176.15 149.68 190.94 134.89 194.38 138.32 205.78 138.32 211.43 143.98"/>
  <g>
    <polygon class="st0" points="274.94 117.1 260.12 131.92 245.37 117.1 238.03 109.76 223.21 95.01 238.03 80.19 252.78 95.01 260.12 102.35 274.94 117.1"/>
    <polygon class="st0" points="274.94 117.1 260.12 131.92 243.23 148.8 228.48 163.62 213.66 148.8 228.48 133.98 260.12 102.35 274.94 117.1"/>
    <polygon class="st0" points="252.78 95.01 238.03 109.76 221.14 126.72 206.33 111.9 238.03 80.19 252.78 95.01"/>
    <polygon class="st0" points="274.94 180.51 260.12 165.69 245.37 180.51 238.03 187.84 223.21 202.59 238.03 217.41 252.78 202.59 260.12 195.25 274.94 180.51"/>
    <polygon class="st0" points="274.94 180.51 260.12 165.69 243.23 148.8 228.48 133.98 213.66 148.8 228.48 163.62 260.12 195.25 274.94 180.51"/>
    <polygon class="st0" points="252.78 202.59 238.03 187.84 221.14 170.89 206.33 185.71 238.03 217.41 252.78 202.59"/>
  </g>
  <g>
    <polygon class="st0" points="24.94 117.1 39.75 131.92 54.5 117.1 61.84 109.76 76.66 95.01 61.84 80.19 47.09 95.01 39.75 102.35 24.94 117.1"/>
    <polygon class="st0" points="24.94 117.1 39.75 131.92 56.64 148.8 71.39 163.62 86.21 148.8 71.39 133.98 39.75 102.35 24.94 117.1"/>
    <polygon class="st0" points="47.09 95.01 61.84 109.76 78.73 126.72 93.54 111.9 61.84 80.19 47.09 95.01"/>
    <polygon class="st0" points="24.94 180.51 39.75 165.69 54.5 180.51 61.84 187.84 76.66 202.59 61.84 217.41 47.09 202.59 39.75 195.25 24.94 180.51"/>
    <polygon class="st0" points="24.94 180.51 39.75 165.69 56.64 148.8 71.39 133.98 86.21 148.8 71.39 163.62 39.75 195.25 24.94 180.51"/>
    <polygon class="st0" points="47.09 202.59 61.84 187.84 78.73 170.89 93.54 185.71 61.84 217.41 47.09 202.59"/>
  </g>
  <polygon class="st0" points="211.43 60.42 196.61 75.23 181.86 60.42 174.52 53.08 159.7 38.33 174.52 23.51 189.27 38.33 196.61 45.67 211.43 60.42"/>
  <polygon class="st0" points="86.82 60.42 101.64 75.23 116.39 60.42 123.73 53.08 138.55 38.33 123.73 23.51 108.98 38.33 101.64 45.67 86.82 60.42"/>
  <polygon class="st0" points="211.48 239 196.66 224.19 181.91 239 174.57 246.34 159.75 261.09 174.57 275.91 189.32 261.09 196.66 253.75 211.48 239"/>
  <polygon class="st0" points="86.84 239 101.66 224.19 116.4 239 123.74 246.34 138.56 261.09 123.74 275.91 108.99 261.09 101.66 253.75 86.84 239"/>
  <polygon class="st0" points="133.46 138.32 122.11 149.67 131.69 159.24 71.49 159.24 71.49 138.32 133.46 138.32"/>
  <polygon class="st0" points="226.78 138.32 226.78 159.24 166.58 159.24 176.15 149.68 164.8 138.32 226.78 138.32"/>
</svg>